<?xml version="1.0" encoding="UTF-8"?><svg id="Camada_1" xmlns="http://www.w3.org/2000/svg" viewBox="0 0 1024 724"><defs><style>.cls-1{fill:#4c4c4c;}.cls-2{fill:#9e9a5f;}.cls-3{fill:#4e4e4e;}.cls-4{fill:#594f04;}.cls-5{fill:#4e4d4d;}.cls-6{fill:#faf113;}.cls-7{fill:#f5ec1f;}.cls-8{fill:#504f50;}.cls-9{fill:#4b4c38;}.cls-10{fill:#d5cf44;}.cls-11{fill:#f5eb1b;}</style></defs><path class="cls-5" d="M328.96,412.46c21,21.71,38.43,45.55,58.23,67.37,9.73,10.73,18.37,22.43,28.78,32.55,2.98,2.9,6.2,5.55,9.26,8.37,12.92,11.87,27.74,12.18,43.38,7.05,8.59-2.81,13.34-8.84,14.44-17.88,.73-5.98,.67-11.97,.67-17.96,.02-60.64,.02-121.29,0-181.93,0-5.49-.25-10.98-1.67-16.34-2-7.54-7.05-11.8-14.43-13.57-7.65-1.83-15.48-2.58-23.28-2.79-6.61-.18-3.23-4.75-3.88-7.47-.77-3.18,1.05-3.77,3.96-3.76,74.48,.08,148.96,.09,223.43,.01,2.98,0,4.32,.92,5.35,3.69,6.85,18.4,13.84,36.75,20.91,55.07,1.17,3.02,.83,3.8-2.66,4.08-6.6,.53-11.06-1.5-15.82-6.57-28.6-30.42-63.83-46.06-105.91-45.28-5.17,.1-10.3,.66-15.36,1.75-14.5,3.11-20.85,10.34-21.43,25.2-.38,9.65-.22,19.32-.23,28.98-.03,19.16,.08,38.32-.08,57.48-.03,3.48,.95,4.53,4.46,4.42,14.98-.5,29.99,.67,44.95-.75,25.82-2.46,39.52-16.04,41.63-41.8,.33-3.99,1.49-4.86,5.19-4.77,8.87,.21,8.87,.04,8.87,8.93,0,29.82-.08,59.65,.1,89.47,.03,4.1-.97,5.17-5.14,5.36-5.54,.26-8.34-1.12-8.1-7.07,.08-1.93-.72-3.91-1.2-5.85-5.45-21.65-17.79-31.94-40.1-32.58-15.65-.45-31.32-.06-46.98-.2-2.86-.03-3.67,.88-3.66,3.67,.17,30.82,.19,61.64,.4,92.46,.03,3.79,.8,7.61,1.55,11.35,1.71,8.53,6.88,14.56,15.38,15.75,30.01,4.21,59.83,5.28,87.65-10.04,17.8-9.8,31.69-24.15,45.16-38.99,.56-.62,1.27-1.16,1.63-1.89,4.17-8.53,11.96-6.82,19.11-6.72,3.21,.04,1.56,2.26,1.12,3.55-4,11.82-8.09,23.61-12.15,35.41-3.19,9.28-6.48,18.52-9.53,27.85-.94,2.87-2.11,4.17-5.48,4.17-89.81-.11-179.61-.09-269.42-.08-17.51,0-31.16-8.43-43.27-20.03-16.66-15.97-29.89-34.85-44.23-52.78-11.65-14.56-22.68-29.61-35.36-43.34-6.55-7.09-13.93-11.69-24.1-10.34-4.58,.61-10.55-1.89-13.51,.93-2.99,2.85-.9,8.83-.92,13.42-.09,23.82-.24,47.65,.06,71.47,.24,19.31,6.82,26.24,26.02,28.52,4.3,.51,8.61,1.25,12.92,1.22,6.57-.04,3.26,4.77,3.92,7.49,.85,3.54-1.69,3.46-4.2,3.45-35.32-.04-70.65-.02-105.97-.02-7.33,0-14.67-.14-21.99,.06-2.93,.08-3.7-.89-3.59-3.7,.35-8.93-.92-7.02,7.02-7.4,7.16-.34,14.28-.91,21.24-2.8,8.7-2.36,13.46-8.14,14.86-16.86,.79-4.94,1.14-9.91,1.14-14.93-.04-60.81-.03-121.62-.04-182.43,0-6.34-.49-12.64-1.85-18.86-1.61-7.33-6.06-12.02-13.1-14.39-8.15-2.74-16.66-3.42-25.12-3.55-6.53-.1-3.43-4.55-4.06-7.29-.84-3.73,1.53-3.88,4.36-3.87,51.15,.06,102.3-.08,153.46,.13,20.12,.08,39.34,4.42,56.81,14.89,44.53,26.67,46.65,83.65,4.27,113.69-12.53,8.88-23.57,13.36-43.86,17.64Zm-114.99-122.4h.03c.14-7.66-1.53-9.98-7.19-9.96-5.16-1.75-10.27-3.88-17.06-2.53,7.36,4.32,12.24,9.23,12.35,17.29-.01,69.61-.03,139.21-.03,208.82,0,3.66,.11,7.32,.16,10.98-.14,1.04-.27,2.09-.41,3.13-1.77,1.16-.12,3.71-1.98,4.84-2.67,2.82-5.34,5.63-8.6,9.07,5.38-.44,10.03-.81,14.17-3.58,4.63-1.7,7.67-4.83,8.75-9.72,2.16-1.67,1.24-4.26,1.91-6.38,3.2-.89,1.92-3.53,1.92-5.43,.07-42.8,.05-85.6,.05-128.41,0-22.98,.02-45.97-.05-68.95,0-1.93,1.12-4.56-2.07-5.37-.32-1.45-.61-2.9,.05-4.34-.79-3.13,2.27-7.08-2.02-9.47Zm140.08,40.64l-.03,24.53c.08,.24,.2,.45,.37,.63-.56,6.48-2.61,12.6-4.53,18.76-5.61,10.22-13.77,17.87-23.82,23.61-1.8,.77-3.6,1.52-5.39,2.32-.54,.24-1.42,.43-1.12,1.23,.29,.77,1.13,1.48,1.96,1.03,2.46-1.34,5.64-.5,7.79-2.65,13.51-3.87,23.83-11.77,30.61-24.17,.74-1.29,1.65-2.52,2.21-3.89,8.55-20.83,8.65-41.88,.56-62.73-5.17-13.32-14.8-22.66-28.53-27.41-3.66-2.38-7.88-2.77-12.95-3.81,3.12,2.89,5.77,4.66,8.79,5.89,14.69,11.04,22.34,25.97,24.35,44.02l-.26,2.63Zm261.85,53.25c-.77-.05-.9,.55-1.09,1.08-5.73,7.37-14.14,10.56-23.25,14.32,10.44,3.03,19.17,7.12,25.16,15.47,.56,.87,.61,3.14,2.35,.88,.86-.46,.91-1.27,.91-2.11,0-10.38,.02-20.75-.02-31.13,0-.44,.61-1.88-.99-1.16-2.15-.47-2.63,1.01-3.03,2.59l-.06,.05Zm33.94-107.2c-3.27-1.66-6.79-.74-10.14-.66-7.16,.15-14.38-1.09-21.48,.71,.61,3.38,3.68,2.47,5.76,3.28,12.36,5.39,23.66,12.59,34.71,20.24,1.32,1.59,2.83,2.88,5.9,3.75-1.64-3.32-2.49-6.02-4.5-8.17-2.76-5.32-5.52-10.65-8.28-15.97-.09-1.41-.86-2.39-1.97-3.16ZM222.05,511.96c3.05-.64,1.95-3.11,1.96-4.86,.05-66.68,.04-133.36,.03-200.03,0-1.32,.31-2.95-.33-3.89-1.08-1.6-1.36,0-1.67,.85-2.48,.35-1.97,2.29-1.97,3.87-.02,68.01-.02,136.03,.02,204.04,0,1.33-.71,3.77,1.31,3.63,2.25-.16-.12-2.44,.65-3.6Zm134.09-6c7.46,8.06,15.21,15.81,24.55,21.75,8.36,5.32,17.35,8.51,28.1,8.29-.84-.92-1.09-1.36-1.46-1.57-12.21-6.81-22.29-16.13-31.51-26.5-23.98-26.96-45.06-56.31-68.85-83.44-7.16-8.16-14.69-10.02-24.63-8.14,.47,.65,.69,1.08,1.02,1.4,24.75,23.7,44.09,51.86,64.91,78.8,.29,5.1,4.4,6.99,7.88,9.41Zm130.08,4.47c-.36,7.14-3.01,13.16-8.71,17.67-1.26-.05-2.87-.62-3.23,1.2-.25,1.27,.93,1.92,1.98,2.51,3.8,2.13,6.87,.75,9.72-1.89,7.32-2.74,10.69-8.42,12.11-15.77,1.3-6.73,1.78-13.5,1.78-20.34-.03-62.25-.02-124.49-.01-186.74,0-4.34-.31-8.63-1.32-12.87-2.47-10.39-9.21-15.12-20.52-13.86,3.92,5.7,8.57,10.92,8.16,18.25-.05,1.66-.15,3.33-.15,4.99-.01,64.29-.02,128.59,0,192.88,0,4.66,.14,9.32,.21,13.98Zm-240.33-157.56h-.11c0,15.98,.06,31.96-.06,47.94-.02,2.81,.31,4.2,3.69,4.12,10.32-.23,20.65,.16,30.96-.18,13.6-.45,26.67-3.48,39.04-9.27,11.16-5.22,19.4-13.29,24.05-24.82,5.5-13.65,6.15-27.85,4.44-42.23-2.9-24.36-18.51-43.5-40.24-48.81-13.37-3.27-27.05-3.66-40.64-1.4-12.16,2.02-18.29,8.58-20.08,20.79-.53,3.61-.97,7.27-1,10.92-.11,14.31-.05,28.63-.05,42.94Zm425.12,147.5l-.85-.87c-12.03,13.91-28.01,22.22-43.44,31.54,9.99,.54,19.77,.51,29.55,.56,2,.01,2.95-.91,3.63-2.68,3.66-9.53,7.4-19.03,11.11-28.55ZM219.71,300.34c.27-3.91,.42-7.83,.88-11.72,.11-.95,1.93-1.94-.32-2.41-1.42-.3-2.22,.64-2.17,2.03,.14,4.04-.62,8.14,1.6,12.1Z"/><path class="cls-3" d="M782.22,266.16c20.15,0,40.31,.05,60.46-.06,2.99-.02,5.04,.34,4.28,3.9-.59,2.76,2.49,7.26-4.02,7.27-7.66,0-15.24,1.22-22.53,3.86-7.77,2.81-11.8,8.53-12.42,16.5-.74,9.46-1.41,18.92-1.4,28.43,.08,56.63,.03,113.25,.04,169.88,0,5.16,.12,10.31,1.23,15.4,2.22,10.19,7.69,15.8,17.9,17.55,5.9,1.01,11.88,1.61,17.84,2.1,5.99,.5,2.68,4.92,3.33,7.57,.65,2.64-.61,3.63-3.52,3.62-41.14-.1-82.28-.08-123.42-.02-2.24,0-3.19-.44-3.3-2.96-.34-7.85-.47-7.86,7.4-8.14,5.35-.19,10.62-.92,15.79-2.26,9.35-2.44,14.79-8.28,16.16-18.05,.86-6.14,1.04-12.27,1.05-18.43,.03-59.13,.02-118.25,.01-177.38,0-6.16-.16-12.32-1.15-18.43-1.61-9.92-5.58-14.46-15.43-16.41-6.68-1.32-13.48-2.12-20.27-2.75-6.37-.59-2.67-5.19-3.39-7.94-.84-3.21,1.5-3.3,3.89-3.29,20.49,.04,40.97,.02,61.46,.02Zm-31.84,261.89c-1.38,.14-3.38-.89-3.89,.99-.42,1.55,1.1,2.46,2.54,3.19,2.1,1.06,9.14-.31,10.94-2.36,1.29-.65,2.57-1.3,3.86-1.95,3.82-.86,6.67-2.7,7.09-7,4.43-1.85,1.62-6.08,2.94-8.95,.08-1.32,.22-2.65,.22-3.97,.01-66.67,.01-133.34,0-200,0-1.33-.13-2.65-.19-3.98,.79-12.47-2.65-23.08-14.07-26.19-1.8-1.72-9.66-2.74-11.09-1.19-.88,.96,.46,1.2,1.17,1.47,4.35,4.94,9.36,9.47,10.13,16.59l-.07,221.55c-.25,1.23-.5,2.47-.75,3.7-.3,.19-.42,.45-.37,.8-.31,.43-.62,.86-.93,1.29-2.53,1.99-4.3,4.92-7.56,5.99Zm24.72-17.41l.48,.19v-205.49h-.48v205.29Z"/><path class="cls-1" d="M840.93,242.14c-1.66,.1-3.31,.28-4.97,.28-37.66,.02-75.32-.04-112.97,.1-3.87,.01-5.81-.95-7.27-4.8-6.9-18.19-14.15-36.25-21.39-54.31-1.28-3.2-1.24-4.25,2.8-3.79,7.5,.85,12.68,4.13,15.56,11.32,2.15,5.35,10.43,7.37,15.17,4.13,4.99-3.41,5.53-7.1,1.29-11.51-1.84-1.91-2.27-3.93-2.2-6.33,.24-8.03,2.75-15.64,4.06-24.4,7.04,6.66,12.04,13.84,16.66,21.26,1.31,2.1-.95,4.06-1.71,6-1.35,3.41-1.14,5.65,2.67,7.52,9.18,4.51,16.91,3.52,21.88-3.4,5.28-7.33,4.42-17.13-2.08-23.7-.47-.47-.94-.95-1.46-1.37-3.86-3.19-4.69-6.23-1.45-10.91,5.1-7.35,9.99-14.93,13.59-23.23,1.19-2.75,4.45-2.83,5.6-.13,3.96,9.24,9.93,17.3,14.99,25.89,1.42,2.42,1.44,4.14-.71,6.02-1.62,1.42-3.02,3.1-4.47,4.71-6.04,6.69-6.04,17.37-.02,24.14,5.41,6.09,15.09,6.34,22.72,.79,3.32-2.41,1.17-5.17,.16-7.04-2.03-3.78-1.2-6.52,1.27-9.48,4.54-5.43,7.92-11.85,14.17-16.92,1.37,8.62,3.78,16.36,4.1,24.5,.08,2.09-.51,3.65-2.19,5.22-4.77,4.45-3.38,10.84,2.61,13.12,5.59,2.12,12.03-.52,14.68-6.02,3.98-8.27,8.5-10.72,18.34-9.86-8.03,20.05-16.47,39.92-23.8,60.22-.74,.14-1.3,.41-1,1.33-.07,.19-.2,.3-.41,.32-1.5-.99-2.95-1.27-4.25,.31Zm-41.09-32.2c-2.87-2.99-6.5-1.04-9.73-1.26-2.77-.19-4.21-.9-4.9-3.62-.75-2.92-1.89-5.75-3.31-9.96-1.17,3.47-2.1,5.43-2.47,7.49-.84,4.67-3.17,6.75-8.11,6.08-2.17-.29-4.58-.64-7.49,.7,2.14,1.6,3.8,3.17,5.75,4.22,4.26,2.29,5.5,5.18,3.16,9.69-.96,1.86-1.82,4.08-1.43,6.98,2.55-1.84,4.84-3.2,6.77-4.97,2.71-2.48,5.03-2.47,7.74,0,2.08,1.89,4.49,3.42,7.92,5.98-1.51-4.73-2.55-7.84-3.47-10.98-.5-1.7-1.43-3.67,1.42-4.33,.82,.14,1.68,.26,2.04,1.13,.47,1.14,.23,2.76,2.13,2.83,2.23,.07,1.61-2.14,2.51-3.04,2.07-2.08,1.57-4.51,1.49-6.94Zm22.69,9.83c3.5,.1,6.79-2.96,6.94-6.45,.14-3.4-3.03-6.9-6.37-7.04-3.75-.16-7.11,3.03-7.12,6.76-.01,3.67,2.87,6.63,6.56,6.73Zm-74.64-6.64c.06-3.52-3.02-6.81-6.46-6.9-3.52-.09-6.99,3.36-7,6.95,0,3.22,3.43,6.59,6.76,6.62,3.37,.03,6.65-3.23,6.7-6.67Z"/><path class="cls-3" d="M538.61,206.34c15.71-8.8,20.56-8.55,28.96,1.39,4.37-4.27,9.08-7.73,15.65-7.67,8.42,.08,13.5,4.58,13.82,13.04,.25,6.82,.17,13.65,.04,20.47-.07,3.5,.47,6.34,4.52,7.08,1.36,.25,2.12,1.01,1.76,2.43-.34,1.33-1.55,1.02-2.48,1.02-6.83,.03-13.65,.03-20.48,.01-1.11,0-2.45,.23-2.53-1.55-.06-1.32,.76-1.64,1.85-1.8,2.83-.41,3.21-2.5,3.21-4.81,0-6.99,.13-13.99-.07-20.98-.15-5.23-2.58-7.92-6.47-7.84-4.66,.1-8.48,3.84-8.53,8.47-.06,5.33-.06,10.66-.01,15.98,.04,3.7-1.05,7.95,4.21,9.36,1.01,.27,.92,1.25,.79,2.08-.18,1.13-1.13,1.06-1.91,1.06-6.83,.02-13.65,.01-20.48-.01-1,0-2.06-.04-2.07-1.49,0-1.28,.76-1.61,1.89-1.78,2.78-.41,3.21-2.53,3.21-4.82,0-7.15,.08-14.31-.13-21.46-.12-3.98-1.58-7.31-6.37-7.35-4.62-.04-8.55,3.88-8.59,8.46-.06,5.83,.01,11.65-.03,17.48-.03,3.23-.27,6.47,3.88,7.58,1.17,.31,1.4,1.28,1.16,2.39-.25,1.13-1.16,1.02-1.95,1.02-7.16,.01-14.32,.01-21.48,0-.96,0-2.1,.22-2.26-1.25-.13-1.18,.33-1.93,1.58-2.02,4.62-.35,4.89-3.49,4.83-7.12-.13-6.99-.13-13.99-.02-20.98,.06-3.61-1.19-6.12-4.78-7.22-1.05-.32-2.44-.24-2.27-2.01,.2-2.04,1.81-1.61,3.02-1.7,3.98-.3,7.99-.34,11.95-.79,4.06-.46,7.41-.39,6.6,5.31Z"/><path class="cls-8" d="M195.36,230.13c4.91-12.77,9.38-24.05,13.58-35.42,2.16-5.83,1.42-6.71-4.73-7.97-1.4-.29-3.83,.35-3.49-2.38,.34-2.77,2.64-1.41,4-1.44,5.99-.15,11.99-.07,17.98-.03,1.07,0,2.48-.48,2.82,1.22,.35,1.76-.79,2.26-2.22,2.63-4.64,1.19-7.08,4.56-8.82,8.76-6.3,15.21-12.84,30.32-18.95,45.6-1.35,3.38-3.25,3.79-6.35,3.92-3.28,.14-4.57-1.16-5.71-4.03-6.04-15.13-12.36-30.16-18.48-45.26-1.78-4.38-4.14-7.95-9.13-9.02-1.34-.29-2.66-.82-2.27-2.63,.36-1.66,1.77-1.2,2.84-1.2,9.16-.02,18.32-.01,27.47,0,1.27,0,2.85-.42,2.87,1.7,.01,1.65-1.31,1.59-2.42,1.9-6.11,1.75-6.19,1.81-3.89,7.46,4.73,11.65,9.57,23.26,14.9,36.19Z"/><path class="cls-8" d="M285.49,239.92c-4.69,4.05-10.04,6.35-16.39,5.51-5.99-.8-9.46-3.88-10.29-9.14-.87-5.51,1.47-9.86,6.79-12.56,5.07-2.58,10.7-3.54,16.01-5.45,4.32-1.56,5.2-4.01,3.61-9.98-1-3.76-3.58-4.92-7.18-4.51-2.62,.3-3.98,1.35-3.04,4.27,.85,2.65,1.03,5.36-1.62,7.19-2.83,1.95-6.04,1.93-9.07,.71-4.7-1.89-4.88-7.91-.18-11.25,6.93-4.93,14.93-5.32,22.98-4.25,9.36,1.24,12.94,5.61,12.91,15.11-.02,5.82-.12,11.64-.27,17.46-.1,3.83,.29,7.16,5.35,7.02,1.09-.03,1.97,.31,1.96,1.65,0,1.12-.58,1.69-1.58,2.24-6.07,3.31-15.25,1.58-19.97-4.01Zm.15-11.72h.11c0-1.65,.03-3.31-.01-4.96-.02-.92,.24-1.96-1.35-2.01-4.47-.12-10.77,5.88-10.9,10.67-.1,3.66,1.07,6.83,5.34,6.87,3.8,.03,6.78-1.56,6.8-6.1,0-1.49,0-2.98,0-4.46Z"/><path class="cls-8" d="M649.16,199.79c7.11,.17,15.23,2.63,19.94,11.18,4.34,7.89,4.09,16.07-.48,23.81-6.64,11.26-25.52,14.49-37.44,6.61-10.34-6.84-12.95-21.95-5.56-32.28,4.47-6.26,11.85-9.46,23.54-9.32Zm-11.91,22.1c.37,4.48,.1,9.01,1.61,13.34,1.36,3.91,3.51,6.84,8.14,6.75,4.43-.09,6.65-3.05,7.61-6.74,2.19-8.52,2.23-17.12-.18-25.65-1.05-3.72-3.47-6.13-7.44-6.3-4.04-.17-6.4,2.38-7.87,5.82-1.75,4.09-1.32,8.51-1.87,12.78Z"/><path class="cls-8" d="M487.02,245.57c-11.09,.27-19.87-5-23.62-14.18-3.28-8.04-1.2-18.69,4.8-24.58,7.97-7.81,23.74-9.14,33.98-2.87,8.52,5.22,12.05,15.96,8.67,26.32-3.14,9.61-11.54,15.01-23.83,15.31Zm-9.19-22.88c.01,4.16-.08,8.33,1.27,12.35,1.3,3.87,3.34,6.96,8,6.93,4.42-.03,6.65-2.92,7.64-6.66,2.2-8.35,2.2-16.81-.06-25.14-1.01-3.75-3.35-6.47-7.81-6.4-4.44,.07-6.51,2.91-7.74,6.58-1.33,3.99-1.36,8.18-1.3,12.35Z"/><path class="cls-8" d="M371.98,221.18c-3.99,0-7.98,.02-11.97,0-1.7-.01-3.04,.3-2.74,2.46,.78,5.65,1.44,11.37,7.44,14.3,5.44,2.66,11.69,1.55,16.52-2.93,.61-.56,1.25-1.12,1.73-1.78,1.01-1.36,1.99-1.49,3.29-.34,1.24,1.09,.6,1.88-.05,2.96-5.08,8.37-18.88,12.15-30.09,8.16-10.48-3.72-15.79-13.15-14.12-25.07,1.43-10.22,10.02-17.96,20.89-18.81,11.52-.9,19.56,3.23,22.48,11.55,.22,.62,.47,1.25,.61,1.89,1.55,7.09,1.14,7.6-6.01,7.6-2.66,0-5.32,0-7.98,0Zm-8.18-3.08c1.89-2.41,7.07,2.46,7.22-3.78,.16-6.72-2.37-10.72-6.49-10.64-4.12,.08-7.7,5.52-7.25,11.55,.36,4.83,4.32,1.1,6.52,2.87Z"/><path class="cls-8" d="M314.73,258.78c1.92-2.29,2.31-4.92,2.34-7.6,.1-12.96,.1-25.93,.25-38.89,.04-3.86-1.93-5.73-5.41-6.61-1.15-.29-2.86-.16-2.73-2.19,.14-2.09,1.8-1.61,2.98-1.68,5.47-.34,10.96-.49,16.42-.91,2.44-.19,3.26,.67,3.25,3.03-.08,12.13,.38,24.29-.2,36.4-.76,15.68-12.73,25.39-27.08,22.67-3.7-.7-6.57-2.5-6.87-6.72-.24-3.41,1.29-5.83,4.6-6.79,3.91-1.14,6.81,.33,8.74,3.85,.64,1.16,1.28,2.32,1.88,3.5,.37,.72,.51,1.6,1.84,1.94Z"/><path class="cls-8" d="M430.74,221.12c-.08,4.21,.28,8.3,2.61,12,4.87,7.72,13.69,8.39,19.68,1.46,.32-.38,.59-.81,.88-1.21,.77-1.07,1.4-2.38,3.11-1.28,1.88,1.2,1.02,2.4,.2,3.76-4.96,8.25-16.26,11.85-27.03,8.58-10.82-3.29-16.46-12.34-15.19-24.36,1.09-10.32,10.03-18.73,21.3-19.82,4.83-.47,9.66-.33,14.18,1.83,3.15,1.5,5.62,3.69,6.27,7.25,.53,2.89,.33,5.89-2.45,7.58-3.23,1.97-6.69,1.71-9.93-.26-2.82-1.72-2.48-4.42-2.03-7.12,.3-1.83,2.14-4.12-.27-5.35-2.59-1.32-5.22-.35-7.17,1.89-3.79,4.35-3.95,9.71-4.16,15.05Z"/><path class="cls-3" d="M247.19,219.55c0,4.5,.13,9-.03,13.49-.13,3.69,.54,6.64,4.72,7.57,1.26,.28,2.13,1.04,1.74,2.5-.37,1.36-1.55,.96-2.47,.97-7.33,.03-14.66,.04-21.99,.03-1.1,0-2.45,.37-2.62-1.42-.16-1.74,1.16-1.75,2.28-1.95,3.57-.63,4.26-3.02,4.2-6.22-.13-6.99-.14-13.99,0-20.99,.08-3.96-.95-6.87-5.21-7.85-1.29-.3-2.74-.72-2.47-2.53,.25-1.74,1.77-1.19,2.79-1.26,5.32-.36,10.64-.55,15.96-.96,2.49-.19,3.16,.86,3.12,3.14-.1,5.16-.03,10.33-.03,15.49Z"/><path class="cls-8" d="M247.43,185.39c-.05,4.44-3.8,7.8-8.63,7.75-4.73-.06-8.51-3.63-8.47-8,.04-4.2,4.09-7.84,8.72-7.84,4.62,0,8.43,3.69,8.38,8.09Z"/><path class="cls-8" d="M331.89,185.01c.16,4.3-3.65,8.01-8.32,8.12-4.9,.11-8.58-3.13-8.68-7.63-.1-4.5,3.42-8.02,8.22-8.22,4.52-.19,8.62,3.42,8.78,7.74Z"/><path class="cls-9" d="M840.93,242.14c1.31-1.58,2.75-1.3,4.25-.31-1.35,1.1-2.82,.46-4.25,.31Z"/><path class="cls-9" d="M845.59,241.51c-.31-.92,.25-1.19,1-1.33-.06,.65-.22,1.22-1,1.33Z"/><path class="cls-11" d="M477.51,528.1c5.71-4.51,8.35-10.53,8.71-17.67,.23-.13,.43-.29,.61-.49,.24,.34,.47,.69,.72,1.02,.01,.01,.36-.14,.36-.22,.09-4.93,.17-9.87,.24-14.8,.62,0,1.23,.02,1.85,.03,.24,2.12-.54,4.43,1.22,7.41,1.37-5.23,.74-9.5,.75-13.69,.05-54.77,.05-109.53-.02-164.3,0-1.86,1.35-4.55-1.93-5.38l-1.88,.02c-.73-5.68,1.02-11.51-1.04-17.11-.4-1.43,.13-3.06-.92-4.35,.41-7.32-4.24-12.55-8.16-18.24,11.31-1.26,18.05,3.47,20.52,13.86,1.01,4.24,1.32,8.53,1.32,12.87-.01,62.25-.02,124.49,.01,186.74,0,6.84-.47,13.6-1.78,20.34-1.42,7.35-4.79,13.03-12.11,15.77-1.71,.34-3.41,.79-5.14,.99-2,.23-4.08,.33-3.33-2.81Z"/><path class="cls-6" d="M199.85,522.63c1.86-1.12,.21-3.68,1.98-4.84,4.24-2.08,1.46-5.91,2.21-8.86,0-12.47,.03-24.94,.02-37.42-.04-56.54-.08-113.08-.18-169.62,0-1.87,.74-4.03-1.08-5.61l-.68-1.43c-.11-8.06-5-12.97-12.35-17.29,6.79-1.35,11.9,.78,17.06,2.53,3.21,2.74,5.15,6.39,7.19,9.98h-.03c.04,1.23,.09,2.47,.13,3.72,0,34.77-.03,69.54-.02,104.31,.01,40.1,.06,80.19,.09,120.29-1.09,4.89-4.13,8.02-8.76,9.72-3.51-.16-5.27-2.08-5.57-5.49Zm7.77-221.89c-.33,0-.66,0-.99,0v210.5c.33,0,.66,0,.99,0v-210.5Zm2.43,216.18c-.05-1.33,0-2.75-1.89-2.82-1.85-.07-2.08,1.23-2.07,2.63,0,1.5-.07,3.16,2.13,3.07,1.87-.08,1.77-1.56,1.83-2.88Z"/><path class="cls-7" d="M348.26,496.55c-20.82-26.94-40.16-55.1-64.91-78.8-.33-.32-.55-.75-1.02-1.4,9.93-1.88,17.47-.02,24.63,8.14,23.8,27.14,44.87,56.48,68.85,83.44,9.22,10.37,19.3,19.69,31.51,26.5,.37,.21,.62,.65,1.46,1.57-10.75,.22-19.74-2.97-28.1-8.29-9.33-5.94-17.08-13.69-24.55-21.75-2.15-3.54-5.16-6.35-7.88-9.41Z"/><path class="cls-11" d="M354.31,328.08c-2.01-18.05-9.66-32.98-24.35-44.02,.32-2.83,2.63-1.69,4.16-2.08,13.73,4.75,23.36,14.08,28.53,27.41,8.09,20.85,7.99,41.9-.56,62.73-.56,1.37-1.46,2.59-2.21,3.89q-6.08,3.95-10.04-1.37c1.92-6.15,3.97-12.27,4.53-18.75,1.25-.13,1.6-.99,1.61-2.07,.01-7.9,.01-15.8,0-23.7,0-1.12-.49-1.88-1.69-2.02Z"/><path class="cls-7" d="M671.02,500.38c-3.71,9.51-7.45,19.01-11.11,28.55-.68,1.77-1.63,2.7-3.63,2.68-9.78-.06-19.56-.03-29.55-.56,15.43-9.31,31.41-17.63,43.44-31.54l.85,.87Z"/><path class="cls-10" d="M214.17,518.4c-.03-40.1-.07-80.19-.09-120.29-.01-34.77,.01-69.54,.02-104.31,1.56,1.61,.18,4.18,1.89,5.74-.66,1.44-.37,2.89-.05,4.34-.06,.66-.16,1.33-.16,1.99,.03,67.06,.07,134.12,.11,201.18,0,1.66,.12,3.32,.18,4.98-.67,2.11,.25,4.71-1.91,6.38Z"/><path class="cls-9" d="M222.05,511.96c-.77,1.16,1.6,3.44-.65,3.6-2.02,.14-1.31-2.29-1.31-3.63-.04-68.01-.04-136.03-.02-204.04,0-1.57-.51-3.51,1.97-3.87,0,69.31,0,138.62,0,207.93Z"/><path class="cls-8" d="M222.05,511.96c0-69.31,0-138.62,0-207.93,.31-.84,.58-2.45,1.67-.85,.64,.94,.33,2.57,.33,3.89,.01,66.68,.02,133.36-.03,200.03,0,1.75,1.09,4.22-1.96,4.86Z"/><path class="cls-9" d="M216.08,512.02c-.06-1.66-.18-3.32-.18-4.98-.05-67.06-.08-134.12-.11-201.18,0-.66,.1-1.32,.16-1.99,3.19,.81,2.06,3.43,2.07,5.36,.07,22.98,.05,45.97,.05,68.95,0,42.8,.02,85.6-.05,128.41,0,1.89,1.27,4.54-1.92,5.43Z"/><path class="cls-7" d="M651.81,279.92c2.76,5.32,5.52,10.65,8.28,15.97-.25,1.54,.36,3.35-1.39,4.42-11.05-7.64-22.35-14.85-34.71-20.24,.23-2.51,2.16-2.04,3.73-2.05,5.44-.03,10.88,.16,16.31-.06,2.88-.12,5.42,.4,7.8,1.95Z"/><path class="cls-7" d="M616.72,414.83c-5.99-8.35-14.72-12.45-25.16-15.47,9.11-3.76,17.52-6.95,23.25-14.32q1.09,.41,1.09-1.08l.06-.05c1.98,.39,2.01,1.9,2,3.45-.02,8.16-.01,16.31-.04,24.47,0,1.14,.18,2.39-1.2,3Z"/><path class="cls-7" d="M349.86,374.63q3.96,5.32,10.04,1.37c-6.77,12.4-17.1,20.3-30.61,24.17-1.25-.37-3.01,.14-3.25-1.92,10.05-5.75,18.21-13.39,23.82-23.61Z"/><path class="cls-4" d="M202.11,294.86c.23,.48,.46,.95,.68,1.42,.09,45.39,.19,90.77,.28,136.16,.05,25.6,.09,51.2,.14,76.81-.28,1.81,.16,3.75-.97,5.41-.06-3.66-.16-7.32-.16-10.98,0-69.61,.02-139.21,.03-208.82Z"/><path class="cls-4" d="M486.83,509.95c-.18,.19-.38,.36-.61,.48-.07-4.66-.21-9.32-.21-13.98-.01-64.29,0-128.59,0-192.88,0-1.66,.1-3.33,.15-4.99,1.05,1.29,.52,2.92,.92,4.35-.03,1.33-.09,2.66-.09,3.98-.06,67.68-.12,135.36-.18,203.03Z"/><path class="cls-10" d="M199.85,522.63c.3,3.41,2.06,5.33,5.57,5.49-4.13,2.76-8.79,3.14-14.17,3.58,3.26-3.43,5.93-6.25,8.6-9.07Z"/><path class="cls-10" d="M651.81,279.92c-2.38-1.55-4.91-2.07-7.8-1.95-5.43,.22-10.87,.03-16.31,.06-1.57,0-3.49-.45-3.73,2.05-2.08-.81-5.14,.1-5.76-3.28,10.54-.01,21.08-.03,31.62-.04,1.11,.77,1.88,1.76,1.97,3.16Z"/><path class="cls-10" d="M616.72,414.83c1.38-.61,1.2-1.86,1.2-3,.02-8.16,.02-16.31,.04-24.47,0-1.56-.03-3.06-2-3.45,.4-1.57,.88-3.06,3.03-2.59,.03,11.46,.06,22.93,.09,34.39-1.74,2.26-1.78,0-2.35-.88Z"/><path class="cls-4" d="M619.07,415.72c-.03-11.47-.06-22.93-.09-34.39,1.6-.72,.99,.72,.99,1.16,.04,10.37,.02,20.75,.02,31.13,0,.84-.06,1.64-.91,2.11Z"/><path class="cls-10" d="M334.13,281.98c-1.54,.39-3.85-.75-4.16,2.08-3.02-1.23-5.67-3-8.79-5.89,5.08,1.04,9.29,1.43,12.95,3.81Z"/><path class="cls-9" d="M219.71,300.34c-2.22-3.97-1.46-8.07-1.6-12.1-.05-1.39,.75-2.33,2.17-2.03,2.25,.47,.43,1.47,.32,2.41-.46,3.89-.62,7.81-.88,11.72Z"/><path class="cls-10" d="M354.31,328.08c1.2,.15,1.69,.91,1.69,2.02,0,7.9,0,15.8,0,23.7,0,1.08-.36,1.94-1.61,2.07-.17-.19-.29-.4-.37-.64,1.44-8.18,1.46-16.35,.03-24.53l.26-2.63Z"/><path class="cls-4" d="M649.84,276.76c-10.54,.01-21.08,.03-31.62,.04,7.1-1.79,14.32-.55,21.48-.71,3.35-.07,6.86-1,10.14,.66Z"/><path class="cls-4" d="M477.51,528.1c-.76,3.14,1.33,3.04,3.33,2.81,1.73-.2,3.43-.65,5.14-.99-2.85,2.64-5.92,4.02-9.72,1.89-1.04-.59-2.23-1.23-1.98-2.51,.36-1.82,1.97-1.25,3.23-1.2Z"/><path class="cls-9" d="M214,290.08c-2.04-3.58-3.98-7.24-7.19-9.98,5.66-.01,7.33,2.3,7.19,9.98Z"/><path class="cls-10" d="M326.03,398.24c.24,2.06,2,1.56,3.25,1.92-2.15,2.16-5.33,1.32-7.79,2.65-.83,.45-1.67-.26-1.96-1.03-.31-.8,.58-.99,1.12-1.23,1.78-.8,3.59-1.55,5.39-2.32Z"/><path class="cls-4" d="M354.05,330.71c1.43,8.18,1.4,16.35-.03,24.53,.01-8.18,.02-16.35,.03-24.53Z"/><path class="cls-10" d="M658.69,300.32c1.76-1.07,1.15-2.88,1.39-4.42,2.01,2.15,2.86,4.85,4.5,8.17-3.06-.87-4.57-2.17-5.9-3.75Z"/><path class="cls-4" d="M348.26,496.55c2.72,3.06,5.74,5.87,7.88,9.41-3.48-2.42-7.6-4.31-7.88-9.41Z"/><path class="cls-10" d="M202.24,514.66c1.13-1.66,.69-3.6,.97-5.41,.27-.12,.55-.23,.83-.32-.76,2.95,2.03,6.78-2.21,8.86,.14-1.04,.27-2.09,.41-3.13Z"/><path class="cls-9" d="M215.99,299.54c-1.71-1.56-.33-4.13-1.89-5.74-.04-1.24-.09-2.49-.13-3.73,4.29,2.39,1.23,6.34,2.02,9.47Z"/><path class="cls-10" d="M615.9,383.96q0,1.49-1.09,1.08c.19-.53,.32-1.13,1.09-1.08Z"/><path class="cls-11" d="M759.83,277.83c11.42,3.11,14.86,13.72,14.07,26.19-3.58-.52-4.01,1.51-3.99,4.46,.09,18.62,.04,37.24,.04,55.86,0,47.38,0,94.76,0,142.14,0,2.74-.8,6.09,3.91,5.49-1.32,2.87,1.49,7.1-2.94,8.95-.73-1.13-1.89-.93-2.97-.96-.25-.59-.33-1.41-.77-1.72-.84-.58-1.25-2.19-2.71-1.43-.29,.15-.39,.88-.38,1.33,.04,1.54,1.15,1.78,2.38,1.81,.49,.01,.98,.01,1.47,.02-.32,2.68-2.43,1.8-3.99,2-1.57-.67-3.15-1.33-4.72-2,.25-1.23,.5-2.47,.75-3.71,1.63-2.93,1.19-6.16,1.2-9.28,.06-22.45-.08-44.9,.06-67.35,.27-44.39-.73-88.79,.52-133.18,.11-3.96-.26-7.95-1.71-11.74-.77-7.12-5.78-11.65-10.13-16.59,3.31-.1,6.61-.19,9.92-.29Z"/><path class="cls-7" d="M773.87,511.96c-4.71,.6-3.91-2.75-3.91-5.49,0-47.38,0-94.76,0-142.14,0-18.62,.05-37.24-.04-55.86-.01-2.95,.41-4.98,3.99-4.46,.07,1.33,.19,2.65,.19,3.98,0,66.67,0,133.34,0,200,0,1.32-.15,2.65-.22,3.97Z"/><path class="cls-4" d="M760.05,294.71c1.45,3.78,1.82,7.78,1.71,11.74-1.24,44.39-.25,88.78-.52,133.18-.14,22.45,0,44.9-.06,67.35,0,3.12,.43,6.34-1.2,9.28,.02-73.85,.04-147.69,.07-221.54Z"/><path class="cls-4" d="M775.1,510.64v-205.29h.48v205.49l-.48-.19Z"/><path class="cls-6" d="M763.95,521.96c1.56-.2,3.67,.68,3.99-2h0c1.08,.02,2.24-.18,2.97,.95-.42,4.3-3.27,6.14-7.09,7-4.93,1.03-6.99-.83-5.9-5.86,.31-.43,.62-.86,.93-1.29,.61,1.58,1.22,3.16,1.88,4.86,1.62-1.04,3.01-1.83,3.21-3.67Z"/><path class="cls-7" d="M757.94,522.06c-1.08,5.03,.97,6.89,5.9,5.86-1.29,.65-2.57,1.3-3.86,1.95-2.6,.39-5.18,1-7.79,1.11-1.74,.08-4.3-.07-1.8-2.93,3.25-1.07,5.03-4,7.56-5.99Z"/><path class="cls-9" d="M750.38,528.04c-2.5,2.86,.06,3.01,1.8,2.93,2.61-.11,5.2-.72,7.79-1.11-1.8,2.05-8.84,3.43-10.94,2.36-1.45-.73-2.97-1.64-2.54-3.19,.51-1.88,2.51-.86,3.89-.99Z"/><path class="cls-4" d="M759.83,277.83c-3.31,.1-6.61,.19-9.92,.29-.7-.27-2.05-.51-1.17-1.47,1.42-1.55,9.29-.54,11.09,1.19Z"/><path class="cls-7" d="M763.95,521.96c-.19,1.84-1.59,2.63-3.21,3.67-.66-1.71-1.27-3.29-1.88-4.86-.05-.35,.07-.62,.37-.8,1.57,.67,3.15,1.33,4.72,2Z"/><path class="cls-7" d="M791.66,215.95c-2.85,.66-1.92,2.63-1.42,4.33,.92,3.14,1.97,6.25,3.47,10.98-3.43-2.56-5.84-4.09-7.92-5.98-2.71-2.46-5.03-2.47-7.74,0-1.93,1.76-4.22,3.12-6.77,4.97-.38-2.9,.47-5.12,1.43-6.98,2.34-4.52,1.1-7.4-3.16-9.69-1.95-1.05-3.61-2.62-5.75-4.22,2.9-1.34,5.32-1,7.49-.7,4.94,.67,7.27-1.42,8.11-6.08,.37-2.06,1.3-4.01,2.47-7.49,1.43,4.21,2.57,7.04,3.31,9.96,.7,2.72,2.13,3.43,4.9,3.62,3.23,.22,6.85-1.73,9.73,1.26-2.95,1.7-5.77,3.57-8.17,6.02Z"/><path class="cls-7" d="M822.52,219.77c-3.69-.1-6.57-3.06-6.56-6.73,.01-3.73,3.38-6.92,7.12-6.76,3.34,.14,6.51,3.64,6.37,7.04-.14,3.49-3.43,6.55-6.94,6.45Z"/><path class="cls-7" d="M747.88,213.12c-.06,3.44-3.33,6.7-6.7,6.67-3.33-.03-6.76-3.4-6.76-6.62,0-3.59,3.48-7.04,7-6.95,3.44,.09,6.52,3.38,6.46,6.9Z"/><path class="cls-9" d="M791.66,215.95c2.4-2.45,5.22-4.32,8.17-6.02,.08,2.43,.58,4.86-1.49,6.94-.9,.9-.28,3.11-2.51,3.04-1.9-.06-1.66-1.69-2.13-2.83-.36-.87-1.22-1-2.04-1.13Z"/><path class="cls-7" d="M490.02,320.01c3.27,.83,1.93,3.51,1.93,5.38,.07,54.77,.08,109.53,.02,164.3,0,4.19,.62,8.46-.75,13.69-1.76-2.98-.98-5.29-1.22-7.41,0-58.65,0-117.3,.01-175.96Z"/><path class="cls-6" d="M490.02,320.01c0,58.65,0,117.3-.01,175.96-.62,0-1.23-.02-1.85-.03,0-58.64,0-117.27-.01-175.91l1.88-.02Z"/><path class="cls-10" d="M488.13,320.03c0,58.64,0,117.27,.01,175.91-.07,4.93-.15,9.87-.24,14.8,0,.08-.35,.23-.36,.22-.25-.33-.49-.68-.72-1.02,.06-67.68,.11-135.35,.18-203.03,0-1.33,.06-2.66,.09-3.98,2.06,5.6,.31,11.43,1.04,17.11Z"/><path class="cls-7" d="M207.62,300.74v210.5c-.33,0-.66,0-.99,0v-210.5c.33,0,.66,0,.99,0Z"/><path class="cls-2" d="M204.04,508.93c-.28,.09-.56,.2-.83,.32-.05-25.6-.09-51.2-.14-76.8-.09-45.39-.19-90.78-.28-136.16,1.82,1.58,1.08,3.74,1.08,5.61,.11,56.54,.14,113.08,.18,169.62,0,12.47-.01,24.94-.02,37.42Z"/><path class="cls-7" d="M210.04,516.92c-.06,1.31,.04,2.8-1.83,2.88-2.2,.09-2.12-1.57-2.13-3.07,0-1.41,.22-2.71,2.07-2.63,1.88,.07,1.84,1.49,1.89,2.82Z"/><path class="cls-7" d="M767.95,519.96c-.49,0-.98,0-1.47-.02-1.23-.03-2.34-.27-2.38-1.81-.01-.46,.09-1.18,.38-1.33,1.46-.76,1.87,.86,2.71,1.43,.44,.3,.53,1.13,.77,1.72h0Z"/></svg>